HIERARCHY
ROOT Hips
{
	OFFSET 0.000000 0.000000 0.000000
	CHANNELS 6 Xposition Yposition Zposition Zrotation Yrotation Xrotation 
	JOINT LHipJoint
	{
		OFFSET 0.000000 0.000000 0.000000
		CHANNELS 3 Zrotation Yrotation Xrotation
		JOINT LeftUpLeg
		{
			OFFSET 1.363060 -1.794630 0.839290
			CHANNELS 3 Zrotation Yrotation Xrotation
			JOINT LeftLeg
			{
				OFFSET 2.448110 -6.726130 0.000000
				CHANNELS 3 Zrotation Yrotation Xrotation
				JOINT LeftFoot
				{
					OFFSET 2.562200 -7.039590 0.000000
					CHANNELS 3 Zrotation Yrotation Xrotation
					JOINT LeftToeBase
					{
						OFFSET 0.157640 -0.433110 2.322550
						CHANNELS 3 Zrotation Yrotation Xrotation
						End Site
						{
							OFFSET 0.000000 0.000000 0.000000
						}
					}
				}
			}
		}
	}
	JOINT RHipJoint
	{
		OFFSET 0.000000 0.000000 0.000000
		CHANNELS 3 Zrotation Yrotation Xrotation
		JOINT RightUpLeg
		{
			OFFSET -1.305520 -1.794630 0.839290
			CHANNELS 3 Zrotation Yrotation Xrotation
			JOINT RightLeg
			{
				OFFSET -2.542530 -6.985550 0.000000
				CHANNELS 3 Zrotation Yrotation Xrotation
				JOINT RightFoot
				{
					OFFSET -2.568260 -7.056230 0.000000
					CHANNELS 3 Zrotation Yrotation Xrotation
					JOINT RightToeBase
					{
						OFFSET -0.164730 -0.452590 2.363150
						CHANNELS 3 Zrotation Yrotation Xrotation
						End Site
						{
							OFFSET 0.000000 0.000000 0.000000
						}
					}
				}
			}
		}
	}
}
MOTION
Frames: 30
Frame Time: 0.008333
2.376461 16.326295 0.486758 169.104927 -60.504810 -152.112624 -10.253951 1.340991 -2.587319 -4.357898 26.832243 -21.575985 -1.836093 0.160983 20.552995 3.983000 29.630039 2.571963 5.996900 -0.000000 -61.924100 11.488844 0.709103 5.791315 -12.447684 5.453291 -46.062311 -0.113667 -2.488129 40.468759 -0.410221 0.502556 -6.147566 -0.068500 0.000000 -80.264800
2.320268 16.382228 0.493137 171.650107 -57.433633 -153.564953 -10.466852 1.404399 -2.647201 -4.195595 27.978589 -21.089627 -1.882117 0.084409 19.102992 4.082737 30.636338 3.462944 6.752600 0.000000 -61.468400 11.133571 0.472767 6.437144 -12.249661 7.730227 -47.125992 -0.078716 -2.257945 38.252761 -0.200923 1.427908 -4.680321 -0.011700 -0.000000 -80.502400
2.266022 16.439414 0.498955 173.908753 -54.436749 -154.696528 -10.691200 1.440384 -2.702320 -3.950191 29.000732 -20.620335 -1.911983 0.012487 17.717688 4.168678 31.563521 4.422467 7.560400 -0.000001 -61.076100 10.758401 0.220990 7.036267 -12.001129 9.917652 -48.035908 -0.011965 -2.024050 35.789013 0.017417 2.353759 -3.048310 0.089501 0.000000 -80.786900
2.215459 16.496974 0.503622 175.912679 -51.554865 -155.561413 -10.923512 1.451030 -2.759379 -3.631962 29.905622 -20.169134 -1.928247 -0.050515 16.424238 4.237567 32.381107 5.435031 8.396899 0.000000 -60.730500 10.373680 -0.035821 7.577906 -11.708837 11.983538 -48.768222 0.087381 -1.788979 33.116701 0.239602 3.261291 -1.267090 0.238299 -0.000000 -81.111400
2.170307 16.554055 0.506520 177.677308 -48.827663 -156.198584 -11.156538 1.441298 -2.822855 -3.258993 30.699617 -19.736508 -1.934244 -0.101938 15.236140 4.287323 33.067283 6.488987 9.239300 -0.000000 -60.431500 9.993725 -0.284951 8.054424 -11.384763 13.895019 -49.309430 0.218142 -1.555754 30.292250 0.459706 4.133799 0.634119 0.435100 -0.000000 -81.448600
2.131831 16.609792 0.507310 179.220392 -46.293645 -156.646792 -11.382590 1.417102 -2.897359 -2.850529 31.411211 -19.337712 -1.937412 -0.138773 14.174246 4.313261 33.575577 7.554357 10.040600 0.000000 -60.101200 9.631722 -0.514614 8.463373 -11.038196 15.626045 -49.659512 0.377105 -1.326846 27.382399 0.670987 4.952902 2.617245 0.675600 -0.000001 -81.766000
2.101368 16.663479 0.505676 -179.460376 -43.988544 -156.928764 -11.590769 1.387035 -2.977447 -2.439815 32.016914 -18.961330 -1.936352 -0.164308 13.205012 4.320753 33.946247 8.653378 10.817800 -0.000000 -59.975100 9.305019 -0.711691 8.801267 -10.689465 17.140335 -49.830693 0.557673 -1.106114 24.466926 0.868558 5.714837 4.631719 0.954400 -0.000000 -82.017500
2.079499 16.714337 0.501512 -178.351541 -41.940137 -157.074747 -11.774364 1.357876 -3.064007 -2.048420 32.554020 -18.632960 -1.940549 -0.177353 12.342854 4.304913 34.128093 9.740328 11.510100 -0.000000 -59.855500 9.022967 -0.869546 9.072031 -10.343226 18.421192 -49.847227 0.752126 -0.895471 21.620689 1.047435 6.409564 6.623986 1.261100 -0.000000 -82.181000
2.066474 16.761778 0.494854 -177.448371 -40.169709 -157.103218 -11.926327 1.336840 -3.149678 -1.705172 33.011719 -18.354465 -1.950172 -0.181808 11.557169 4.270178 34.152954 10.822541 12.124900 -0.000000 -59.890400 8.795907 -0.983402 9.278022 -10.009518 19.446307 -49.741789 0.951099 -0.697887 18.917589 1.205723 7.042233 8.536862 1.586099 0.000000 -82.235200
2.062240 16.805317 0.485990 -176.735846 -38.690617 -157.036788 -12.044172 1.327116 -3.229513 -1.423008 33.401637 -18.144177 -1.968609 -0.179173 10.840899 4.217609 34.020000 11.882633 12.642801 -0.000000 -60.082700 8.626356 -1.054122 9.425443 -9.685434 20.212218 -49.549397 1.146545 -0.514602 16.411936 1.342286 7.610708 10.320953 1.916501 0.000000 -82.171800
2.066309 16.844532 0.475192 -176.202855 -37.508249 -156.888907 -12.125598 1.331983 -3.299363 -1.218437 33.726722 -18.011220 -1.997702 -0.171908 10.180919 4.148877 33.736736 12.904192 13.051699 0.000000 -60.377600 8.516639 -1.085253 9.520191 -9.373386 20.714717 -49.306202 1.330989 -0.347504 14.148274 1.458580 8.123450 11.932505 2.242300 -0.000000 -81.998500
2.077879 16.879093 0.462981 -175.828799 -36.621032 -156.675781 -12.171880 1.350463 -3.357661 -1.093320 34.001433 -17.972607 -2.040286 -0.160507 9.581015 4.064231 33.295635 13.863267 13.330100 -0.000000 -60.713800 8.462977 -1.083097 9.569791 -9.069732 20.966359 -49.044046 1.499747 -0.197039 12.149373 1.556246 8.580149 13.342510 2.551600 0.000000 -81.733000
2.096115 16.908971 0.449882 -175.598785 -36.020857 -156.404371 -12.184576 1.380790 -3.397397 -1.048974 34.192703 -18.017276 -2.089729 -0.149038 9.010543 3.971931 32.760949 14.774664 13.518001 -0.000000 -61.225700 8.461851 -1.053052 9.578986 -8.780683 20.985386 -48.788132 1.648526 -0.063387 10.419664 1.636930 8.978850 14.537812 2.834000 -0.000000 -81.413701
2.120159 16.933968 0.436441 -175.496977 -35.694298 -156.084274 -12.166154 1.420084 -3.423783 -1.080900 34.331351 -18.161959 -2.151220 -0.135629 8.495365 3.868616 32.098754 15.601155 13.578100 -0.000001 -61.749600 8.507846 -1.000619 9.551713 -8.497648 20.781846 -48.568612 1.776911 0.051255 8.981793 1.705288 9.337770 15.502356 3.087800 -0.000000 -81.048499
2.148627 16.954345 0.423487 -175.492794 -35.619629 -155.725758 -12.122291 1.462078 -3.435021 -1.171151 34.393036 -18.390882 -2.218062 -0.122153 8.017400 3.761555 31.361214 16.348776 13.543800 0.000001 -62.345600 8.590787 -0.929921 9.492600 -8.233339 20.405742 -48.391542 1.883732 0.149602 7.800595 1.759860 9.628994 16.257165 3.297600 0.000000 -80.694400
2.180634 16.970272 0.411689 -175.571062 -35.771385 -155.334772 -12.057242 1.502730 -3.434832 -1.307877 34.379858 -18.694999 -2.288771 -0.108489 7.578760 3.652813 30.562803 17.005259 13.420400 0.000000 -62.959101 8.703893 -0.842153 9.400862 -7.984172 19.878026 -48.272681 1.970388 0.230113 6.881774 1.803921 9.865779 16.807464 3.464800 0.000000 -80.362700
2.214889 16.982130 0.401862 -175.703442 -36.118329 -154.922917 -11.978231 1.536201 -3.428560 -1.469686 34.300287 -19.062707 -2.361423 -0.093832 7.180567 3.544996 29.719871 17.562377 13.216500 -0.000000 -63.556901 8.836097 -0.738283 9.277662 -7.752550 19.243101 -48.212200 2.038917 0.294299 6.200640 1.837259 10.034847 17.179809 3.583100 0.000000 -80.076600
2.250198 16.990314 0.394719 -175.865501 -36.626253 -154.500810 -11.892681 1.558024 -3.421535 -1.637281 34.164466 -19.477754 -2.433989 -0.077842 6.817853 3.440683 28.851675 18.014138 12.944400 -0.000000 -64.102200 8.977211 -0.618034 9.122276 -7.535551 18.537032 -48.208258 2.092385 0.343011 5.740259 1.860682 10.134638 17.397795 3.652000 -0.000000 -79.846101
2.285614 16.995332 0.390847 -176.037182 -37.258657 -154.080621 -11.807928 1.565190 -3.418672 -1.794140 33.982999 -19.918002 -2.503699 -0.060939 6.475995 3.343187 27.987535 18.363145 12.625600 0.000000 -64.588000 9.117809 -0.480782 8.933498 -7.327843 17.792206 -48.254761 2.134047 0.377031 5.484308 1.875121 10.168157 17.485524 3.674300 0.000001 -79.670500
2.320114 16.997625 0.390696 -176.196824 -37.979476 -153.674889 -11.730994 1.555824 -3.425851 -1.927424 33.780649 -20.367298 -2.569942 -0.043266 6.142346 3.254116 27.144597 18.611328 12.273900 -0.000000 -65.004000 9.248914 -0.326978 8.711958 -7.121566 17.038419 -48.345035 2.167584 0.397585 5.415004 1.881700 10.140971 17.466469 3.654600 -0.000001 -79.543000
2.352943 16.997691 0.394564 -176.322136 -38.752810 -153.300465 -11.667958 1.528302 -3.450306 -2.023417 33.590971 -20.809350 -2.633010 -0.024835 5.802062 3.174253 26.334025 18.762514 11.899800 -0.000000 -65.341401 9.362097 -0.158202 8.459916 -6.910295 16.311969 -48.462345 2.195897 0.407391 5.500430 1.880045 10.047866 17.368908 3.594000 -0.000000 -79.457900
2.383174 16.995906 0.402713 -176.384963 -39.547195 -152.978186 -11.623479 1.481355 -3.500970 -2.073073 33.461967 -21.236414 -2.695570 -0.005095 5.446187 3.102287 25.550050 18.819892 11.503700 0.000000 -65.591800 9.450138 0.022301 8.181679 -6.685985 15.647006 -48.590062 2.221880 0.409746 5.705277 1.869682 9.883031 17.219730 3.493500 0.000000 -79.404399
2.410332 16.992704 0.415014 -176.372635 -40.335321 -152.721202 -11.598484 1.416295 -3.582554 -2.076959 33.415048 -21.624938 -2.756529 0.013418 5.041393 3.039500 24.816819 18.803620 11.108500 -0.000001 -65.783200 9.511692 0.211640 7.879503 -6.440932 15.058535 -48.714790 2.247140 0.406257 6.005165 1.851886 9.659871 17.034998 3.361900 0.000001 -79.366700
2.433754 16.988418 0.430890 -176.276193 -41.092825 -152.538871 -11.593615 1.335108 -3.697624 -2.041503 33.476152 -21.960230 -2.816242 0.028412 4.559681 2.985631 24.146082 18.737063 10.730100 -0.000001 -65.960600 9.545825 0.404039 7.560765 -6.171056 14.560286 -48.825547 2.272876 0.399325 6.369212 1.827715 9.387896 16.830813 3.206200 0.000000 -79.329000
2.452482 16.983299 0.449634 -176.074781 -41.795842 -152.453038 -11.611804 1.236936 -3.854462 -1.970492 33.739624 -22.274508 -2.887800 0.044770 4.035385 2.930081 23.450443 18.605818 10.317200 -0.000000 -66.023200 9.545215 0.587016 7.245970 -5.875652 14.193575 -48.901802 2.300817 0.395791 6.734690 1.794736 9.038354 16.638000 3.017600 0.000000 -79.289800
2.465687 16.977628 0.469377 -175.795690 -42.427381 -152.446640 -11.650468 1.131115 -4.033948 -1.897265 34.160956 -22.536390 -2.962554 0.054516 3.403078 2.878755 22.802787 18.470456 9.931500 0.000000 -66.091200 9.516897 0.752996 6.950077 -5.563265 13.935029 -48.955272 2.330740 0.395023 7.092075 1.757535 8.651812 16.453535 2.814600 0.000001 -79.227900
2.472076 16.971539 0.487514 -175.452792 -42.971291 -152.508292 -11.707793 1.024785 -4.222976 -1.859329 34.785397 -22.793882 -3.050343 0.059315 2.689163 2.823244 22.138878 18.337098 9.542301 0.000000 -66.079000 9.460410 0.886477 6.708540 -5.252476 13.801064 -48.997417 2.363052 0.402354 7.391955 1.715995 8.215834 16.293738 2.593400 0.000000 -79.142000
2.471561 16.964386 0.501591 -175.091057 -43.406890 -152.608125 -11.784337 0.934426 -4.397576 -1.905032 35.595933 -23.065556 -3.151975 0.055507 1.892819 2.762297 21.463524 18.231453 9.161600 0.000000 -66.032200 9.377567 0.975081 6.553449 -4.974675 13.785541 -49.060088 2.396719 0.418780 7.634610 1.674150 7.753256 16.145329 2.361900 -0.000001 -79.033000
2.467775 16.954775 0.512985 -174.747194 -43.704842 -152.773715 -11.884948 0.875800 -4.558920 -2.032097 36.627045 -23.340302 -3.273945 0.048067 1.079107 2.689559 20.725886 18.118217 8.751100 0.000000 -65.968100 9.263423 1.015722 6.496807 -4.745136 13.898289 -49.134321 2.429745 0.440933 7.865207 1.635472 7.289191 15.979508 2.127400 -0.000000 -78.918600
2.463560 16.942240 0.522832 -174.423131 -43.848596 -152.979583 -11.995348 0.836388 -4.738490 -2.221387 37.846247 -23.600763 -3.415435 0.042100 0.286056 2.606632 19.929083 17.984651 8.309000 0.000000 -65.918900 9.130628 1.028849 6.500028 -4.569578 14.132750 -49.225837 2.456886 0.464102 8.110283 1.599808 6.848132 15.783766 1.901200 -0.000001 -78.810200
